<svg style="display:none;">
	<svg xmlns="http://www.w3.org/2000/svg" style="position:absolute; width: 0; height: 0; display:none;">
		<defs>
			
			<!--<symbol viewBox="0 0 32 32" id="icon-name">
      	<path ></path>
      </symbol>-->
			
			<symbol viewBox="-240 265 32 32" id="icon-rlfeuchte">
      	<path d="m -234.43018,265.16889 c 0,2.13802 -3.875,5.37431 -3.875,7.9375 0,2.56318 1.90771,3.84375 3.875,3.84375 1.9673,0 3.90625,-1.17566 3.90625,-3.84375 0,-2.6681 -3.90625,-5.79707 -3.90625,-7.9375 z m 13.25,4.9375 c 0,2.13802 -3.875,5.37431 -3.875,7.9375 0,2.56318 1.90771,3.84375 3.875,3.84375 1.9673,0 3.90625,-1.17566 3.90625,-3.84375 0,-2.6681 -3.90625,-5.79707 -3.90625,-7.9375 z m -15.0625,0.5625 c -0.17484,0.73447 -0.40597,1.77395 0.0312,2.53125 0.43723,0.7573 0.97361,0.92437 0.78125,1.78125 -0.19236,0.85687 -1.84375,-0.37595 -1.84375,-1.6875 0,-1.31154 0.43668,-2.24028 1.03125,-2.625 z m 13.25,4.9375 c -0.17484,0.73447 -0.40592,1.77395 0.0312,2.53125 0.43723,0.7573 0.97361,0.92437 0.78125,1.78125 -0.19236,0.85687 -1.84375,-0.37595 -1.84375,-1.6875 0,-1.31154 0.43668,-2.24028 1.03125,-2.625 z m -6.75,2.65625 c 0,2.13802 -3.875,5.37431 -3.875,7.9375 0,2.56318 1.90771,3.84375 3.875,3.84375 1.9673,0 3.90625,-1.17566 3.90625,-3.84375 0,-2.6681 -3.90625,-5.79707 -3.90625,-7.9375 z m -1.8125,5.5 c -0.17484,0.73447 -0.40592,1.77395 0.0312,2.53125 0.43723,0.7573 0.97361,0.92437 0.78125,1.78125 -0.19236,0.85687 -1.84375,-0.37595 -1.84375,-1.6875 0,-1.31154 0.43668,-2.24028 1.03125,-2.625 z"></path>
      </symbol>
      
			<symbol viewBox="-244 262 32 32" id="icon-radiation">
      	<path d="m -228.98954,291.5877 c -1.78109,-0.21611 -3.02507,-0.52287 -4.35808,-1.07467 -0.46394,-0.19205 -1.68449,-0.79 -1.86968,-0.91596 -0.0586,-0.0398 0.56259,-1.16333 2.51425,-4.54764 1.42562,-2.47211 2.61158,-4.5171 2.63547,-4.54444 0.0239,-0.0273 0.18014,0.0196 0.34718,0.1042 1.11752,0.5663 2.74418,0.5663 3.86171,0 0.16704,-0.0847 0.32327,-0.13155 0.34717,-0.1042 0.0239,0.0273 1.20985,2.07233 2.63548,4.54444 1.95166,3.38431 2.57281,4.50781 2.51425,4.54764 -0.18519,0.12596 -1.40574,0.72391 -1.86969,0.91596 -1.05959,0.43862 -2.25863,0.77205 -3.45823,0.96167 -0.60342,0.0954 -2.81953,0.17128 -3.29984,0.113 z m 0.43587,-12.1155 c -0.51626,-0.13903 -0.92216,-0.38139 -1.34207,-0.8013 -0.21832,-0.21831 -0.46846,-0.53807 -0.55586,-0.71057 -0.44443,-0.87701 -0.44764,-1.90791 -0.009,-2.7742 0.21549,-0.42528 0.80436,-1.02934 1.21873,-1.2502 1.23421,-0.65783 2.67824,-0.42984 3.61408,0.57057 0.19709,0.21069 0.42597,0.51652 0.50862,0.67963 0.43899,0.86629 0.43578,1.89719 -0.009,2.7742 -0.20416,0.4029 -0.86354,1.06228 -1.26643,1.26645 -0.65262,0.3307 -1.48984,0.42584 -2.15977,0.24542 z m -14.23577,-3.3725 c 8e-5,-0.5898 0.15146,-1.91485 0.30332,-2.655 0.79638,-3.88172 2.96962,-7.08715 6.32105,-9.32326 0.42595,-0.2842 0.80396,-0.51673 0.84003,-0.51673 0.0633,0 5.25551,8.93719 5.25551,9.04611 0,0.0295 -0.13281,0.13973 -0.29514,0.24492 -0.16232,0.10518 -0.47957,0.38924 -0.705,0.63125 -0.66551,0.71445 -1.08455,1.64371 -1.19148,2.64211 l -0.0424,0.39559 -5.243,0 -5.243,0 7e-5,-0.46499 z m 19.47151,0.0694 c -0.10692,-0.9984 -0.52597,-1.92766 -1.19148,-2.64211 -0.22543,-0.24201 -0.54268,-0.52607 -0.705,-0.63125 -0.16232,-0.10519 -0.29514,-0.21539 -0.29514,-0.24492 0,-0.10892 5.19223,-9.04611 5.25549,-9.04611 0.0361,0 0.41411,0.23253 0.84004,0.51673 3.35142,2.23611 5.52467,5.44154 6.32105,9.32326 0.15186,0.74015 0.30324,2.0652 0.30334,2.655 l 7e-5,0.46499 -5.243,0 -5.243,0 -0.0424,-0.39559 z "></path>
      </symbol>
      
			<symbol viewBox="0 0 60 32" id="icon-frog">
      	<path d="M 20.943445,1.5040837e-4 C 20.564765,-0.00335959 20.15943,0.05514941 19.792766,0.10973891 18.326172,0.32856541 16.483211,1.2689631 15.573607,2.2467151 c -0.909603,0.9777402 -1.808211,2.7945073 -1.808211,2.7945073 0,0 -3.270202,-0.2108243 -5.5890144,-0.1643827 C 5.8575708,4.9233647 4.2311947,5.2056052 4.2311947,5.2056052 3.1085647,5.4496575 2.6748799,5.4072662 2.2038071,6.4658741 1.7327693,7.5244589 2.0394243,10.411061 2.0394243,10.411061 c 0,0 5.6020425,0.345563 11.3424117,3.945187 5.740324,3.599622 8.109552,5.862986 8.109552,5.862986 l -4.986279,7.232842 -5.15066,0 c -0.914956,0 -2.3013593,0.300822 -2.3013593,2.246565 C 9.0530897,31.641754 10.668221,32 11.354449,32 l 7.616402,0 7.287638,-10.41091 12.438295,0 0,3.178067 -6.465721,0 c -0.960721,0.0228 -2.093567,0.729937 -2.95889,1.972594 C 28.406851,27.982387 28.066699,32 28.066699,32 l 22.410851,0 c 3.925596,0 7.064473,-2.487034 7.506814,-6.6849 0.206283,-1.957772 0.03205,-4.097809 -1.150679,-5.753397 -0.493271,-0.564202 -0.892835,-0.699526 -1.479445,-0.821914 -2.352759,-0.05751 -2.067722,2.011449 -3.616422,0.767119 -1.548699,-1.244294 -1.001761,-5.579323 -7.452019,-8.767081 -6.45026,-3.187736 -15.999923,-3.7808045 -15.999923,-3.7808045 0,0 -0.666514,-2.389919 -1.369856,-3.5068337 C 26.212689,2.3353207 25.356245,1.3255988 24.121512,0.71247581 23.195428,0.25263641 22.079413,0.00765501 20.943445,1.5040837e-4 z M 20.724268,3.2330118 c 2.32254,0 4.219158,1.8418229 4.219158,4.1643648 0,2.3225052 -1.896618,4.2191584 -4.219158,4.2191584 -2.322494,0 -4.219159,-1.8966532 -4.219159,-4.2191584 0,-2.3225419 1.896665,-4.1643648 4.219159,-4.1643648 z M 2.7517497,13.698717 c 1.2541854,3.642347 2.9203377,6.269889 5.041072,8.438316 2.1207343,2.168415 3.9846863,2.19177 6.1369573,2.19177 l 2.794507,-3.780804 C 14.360728,18.697687 11.587362,16.887722 9.1626783,15.890487 6.7379717,14.893249 4.888405,14.425858 2.7517497,13.698717 z"></path>
      </symbol>
      
			<symbol viewBox="0 0 32 32" id="icon-snail">
      	<path d="M 3.75,-5.0000001e-8 C 2.22279,-5.0000001e-8 0.96875,1.2227829 0.96875,2.7499999 c 0,1.195726 0.78009,2.2067984 1.84375,2.5937504 L 2.8125,25 c 0,1.794316 0.787767,3.694184 1.84375,4.90625 C 5.712263,31.118314 7.3270857,32 8.5312497,32 l 22.5000003,0 0,-1.3125 c 0,-1.106428 -0.684996,-2.164831 -1.375,-2.78125 C 28.966223,27.289809 27.855886,26.724256 26.9375,26.5 c -0.918371,-0.224279 -0.928508,-0.127443 -2.28125,-0.1875 -0.09924,0.293253 -0.19352,0.591874 -0.375,0.90625 A 1.5319008,1.5319008 0 0 1 24.25,27.25 c -0.303507,0.503442 -0.676141,1.057025 -1.25,1.5625 -0.573851,0.505474 -1.417709,0.9375 -2.375,0.9375 -1.05525,0 -1.885434,-0.45225 -2.59375,-0.96875 C 17.322928,28.264718 16.699238,27.639088 16.21875,27 c -0.718466,-0.955728 -1.063774,-2.121546 -1.25,-3.53125 -0.228868,-0.722361 -0.15625,-1.504791 -0.15625,-2.5 l 0,-0.40625 0,-7.21875 a 1.5319008,1.5319008 0 0 1 0,-0.0625 l 0,-8.0312496 C 15.734698,4.8008024 16.34375,3.845067 16.34375,2.75 16.34375,1.222783 15.120968,-4.9999999e-8 13.59375,-4.9999999e-8 12.06654,-4.9999999e-8 10.8125,1.222783 10.8125,2.75 c 0,1.132529 0.711561,2.1336994 1.6875,2.5625004 l 0,5.4687496 c 0,0 -1.291826,-1.1916776 -3.6875003,-1.1874996 C 6.4168182,9.5974503 4.75,10.875 4.75,10.875 l 0,-5.5624997 C 5.762332,4.9010183 6.4999997,3.9104539 6.4999997,2.7499999 6.4999997,1.2227829 5.277225,-5.0000001e-8 3.75,-5.0000001e-8 z M 3.75,1.5937499 c 0.646824,0 1.15625,0.509404 1.15625,1.15625 0,0.646817 -0.509426,1.1875 -1.15625,1.1875 -0.646809,0 -1.1875,-0.540683 -1.1875,-1.1875 0,-0.646846 0.540691,-1.15625 1.1875,-1.15625 z m 9.84375,0 c 0.646817,0 1.15625,0.509404 1.15625,1.15625 0,0.646817 -0.509433,1.1875 -1.15625,1.1875 -0.646816,0 -1.15625,-0.540683 -1.15625,-1.1875 0,-0.646846 0.509434,-1.15625 1.15625,-1.15625 z M 19,13.3125 c -1.843335,0 -2.6875,0.03125 -2.6875,0.03125 l 0,7.21875 c 0,2.668873 0.365124,4.4789 1.15625,5.53125 0.791148,1.052351 2.065922,2.125 3.15625,2.125 1.090329,0 1.775236,-0.890003 2.3125,-1.78125 0.429034,-0.743102 0.452915,-1.281926 0.6875,-2.5 0.234586,-1.218067 0,-4.8125 0,-4.8125 0,0 -0.248989,-2.743071 -1,-3.78125 C 21.873967,14.305571 20.889369,13.3125 19,13.3125 z"></path>
      </symbol>
      
			<symbol viewBox="0 0 60 32" id="icon-zelda">
      	<path d="m 29.956609,0 -4.527883,6.3582985 9.055765,0 L 29.956609,0 z m -4.527883,6.3582985 -4.527882,6.3565445 9.055765,0 -4.527883,-6.3565445 z m 4.527883,6.3565445 9.057518,0 -4.527901,-6.3565445 -4.529617,6.3565445 z M 0.151414,2.0055872 2.1202134,8.3393543 17.903852,10.106716 c 0,0 -0.12872,0.567208 -0.145323,0.982656 -0.01679,0.415429 0,0.849514 0,0.849514 L 3.7089719,13.420751 6.2978283,18.447824 18.319039,14.448925 c 0,0 0.112117,0.336313 0.224215,0.616568 0.112117,0.280255 0.236453,0.590284 0.236453,0.590284 l -8.8000222,5.979955 4.1057372,2.536324 6.14287,-6.459894 c 0,0 0.257477,0.241713 0.59379,0.521968 0.336295,0.280255 0.635821,0.355585 0.635821,0.355585 l -3.462902,6.617529 4.053185,0.613061 1.348743,-6.053512 c 0,0 2.51543,0.689827 2.811318,-1.301452 0.295869,-1.99126 -1.723579,-2.278828 -1.723579,-2.278828 0,0 -2.898698,-0.803641 -4.012909,-3.352557 -0.491151,-1.123576 -0.393473,-3.004398 0.01306,-4.6610049 0.49005,-2.0009048 1.702555,-4.0374221 1.702555,-4.0374221 0,0 -1.607992,1.4722949 -2.186001,2.1299419 -0.813696,0.9258134 -1.368162,1.8463662 -1.338221,1.8164062 L 0.15227213,2.0055872 z m 59.696202,0 -18.510878,6.0762899 C 41.366778,8.1119117 40.812214,7.1912843 39.998517,6.2654709 39.420509,5.6078239 37.810763,4.135529 37.810763,4.135529 c 0,0 1.212505,2.0365173 1.702555,4.0374221 0.405729,1.6566069 0.50516,3.5374289 0.01492,4.6610049 -1.114211,2.548916 -4.01291,3.352557 -4.01291,3.352557 0,0 -2.019448,0.287568 -1.72356,2.278828 0.29587,1.991279 2.8113,1.301452 2.8113,1.301452 l 1.348742,6.053512 4.051432,-0.613061 -3.461148,-6.617529 c 0,0 0.299525,-0.07537 0.63582,-0.355585 0.336314,-0.280255 0.593791,-0.521968 0.593809,-0.521968 l 6.142852,6.459894 4.103983,-2.536324 -8.800022,-5.979955 c 0,0 0.126108,-0.310029 0.238206,-0.590284 0.112117,-0.280255 0.224215,-0.616568 0.224215,-0.616568 l 12.021215,3.998899 2.587103,-5.027073 -14.047804,-1.481865 c 0,0 0.01679,-0.434085 0,-0.849514 -0.01679,-0.415448 -0.145323,-0.982656 -0.145323,-0.982656 L 57.879787,8.3393543 59.848586,2.0055872 z M 29.937338,14.85706 l 0,0.106894 -0.707643,1.875972 c 0,0 -0.895984,0.858841 -1.308447,1.565924 -0.412464,0.707083 -0.445408,1.295352 -0.604312,1.776111 -0.138421,0.418676 -0.480238,0.957304 -0.782953,1.255897 -0.302716,0.298611 -1.000173,0.444904 -1.000173,0.444904 l 2.347143,1.511639 c 0,0 0.382223,0.198396 0.590302,0.465929 0.208079,0.267532 0.285497,0.846025 0.285497,0.846025 0,0 0.0638,0.314152 0.01679,0.931839 -0.0513,0.684399 -0.470071,1.067238 -0.495703,1.448566 -0.02015,0.299227 0.138421,0.644588 0.138421,0.644588 l 1.520388,4.023431 0,0.106894 0.02108,-0.05261 0.01921,0.05261 0,-0.106894 1.520387,-4.023431 c 0,0 0.158568,-0.345361 0.138421,-0.644588 -0.02556,-0.381328 -0.444457,-0.764167 -0.495703,-1.448566 -0.04626,-0.617687 0.01679,-0.931839 0.01679,-0.931839 0,0 0.07742,-0.578493 0.285516,-0.846025 0.208078,-0.267533 0.590283,-0.465929 0.590283,-0.465929 l 2.347143,-1.511639 c 0,0 -0.697457,-0.146255 -1.000173,-0.444904 -0.302692,-0.298593 -0.644564,-0.837221 -0.782948,-1.255897 -0.158941,-0.480759 -0.19183,-1.069028 -0.604312,-1.776111 -0.412463,-0.707083 -1.308429,-1.565924 -1.308429,-1.565924 l -0.707661,-1.875972 0,-0.106894 -0.01921,0.05261 -0.02108,-0.05261 z m -3.900811,9.611014 c -0.461191,0.01679 -0.707139,0.446584 -0.991405,0.793475 -0.379015,0.462515 -1.644742,3.250962 -1.644742,3.250962 l -4.478838,0.02108 c 0,0 -0.465426,-0.03004 -0.592037,0.192669 -0.126668,0.222704 0.278445,0.588232 0.590283,0.914341 C 19.863193,30.627193 21.834436,32 21.834436,32 l -1.070222,-2.061627 3.548734,0 -0.397614,1.248882 1.744603,-1.287423 c 0,0 0.751426,-0.537695 0.849514,-0.916076 0.09813,-0.378399 -1.424034,-0.392372 -1.424034,-0.392372 0,0 1.401499,-2.133934 1.604447,-2.46799 0.202968,-0.334075 0.640932,-1.146951 -0.110251,-1.516881 -0.211082,-0.103908 -0.389275,-0.144203 -0.542993,-0.13842 z m 7.80511,0 c -0.139913,0.0056 -0.298723,0.04738 -0.483427,0.138421 -0.751277,0.36993 -0.315065,1.182805 -0.112117,1.51688 0.202949,0.334056 1.606201,2.467991 1.606201,2.467991 0,0 -1.522141,0.01306 -1.424034,0.392371 0.09812,0.378381 0.849514,0.916076 0.849514,0.916076 l 1.742849,1.287423 -0.39586,-1.248882 3.54698,0 -1.070222,2.061627 c 0,0 1.972978,-1.372807 2.916402,-2.359399 0.311838,-0.326109 0.716914,-0.691636 0.590284,-0.91434 -0.126668,-0.222705 -0.592038,-0.19267 -0.592038,-0.19267 l -4.478838,-0.02108 c 0,0 -1.265727,-2.788447 -1.644742,-3.250962 -0.296112,-0.361349 -0.551369,-0.81185 -1.05097,-0.793474 z"></path>
      </symbol>
			
			<symbol viewBox="0 0 32 32" id="icon-rss">
      	<path d="M 0.125 0 L 0.125 6.375 C 0.1558129 6.3748886 0.18789255 6.375 0.21875 6.375 C 14.19621 6.375 25.5 17.710069 25.5 31.6875 C 25.5 31.793831 25.501485 31.893974 25.5 32 L 31.875 32 C 31.875742 31.894301 31.875 31.793437 31.875 31.6875 C 31.875 14.189016 17.685991 0 0.1875 0 C 0.15787506 0 0.15460266 -8.1672754e-05 0.125 0 z M 0.125 10.78125 L 0.125 16.9375 L 0.21875 16.9375 C 8.356393 16.9375 14.9375 23.549857 14.9375 31.6875 C 14.9375 31.794031 14.939727 31.894004 14.9375 32 L 21.125 32 C 21.126485 31.894145 21.125 31.793734 21.125 31.6875 C 21.125 20.136322 11.769965 10.78125 0.21875 10.78125 C 0.1879371 10.78125 0.1557832 10.781139 0.125 10.78125 z M 4.40625 23.34375 C 2.0594428 23.34375 0.15625 25.24695 0.15625 27.59375 C 0.15625 29.940565 2.0594428 31.84375 4.40625 31.84375 C 6.7530498 31.84375 8.65625 29.940565 8.65625 27.59375 C 8.65625 25.24695 6.7530498 23.34375 4.40625 23.34375 z "></path>
      </symbol>
      
			<symbol viewBox="0 0 32 32" id="icon-weissbier">
      	<path d="M 15.96875 0 C 12.97875 0 10.5602 0.3948896 10.5625 0.875 C 10.530146 1.0303477 9.94552 2.564333 10.03125 5.71875 C 10.116982 8.8731676 12.82824 17.943809 12.875 21.625 C 12.92178 25.306192 12.398213 26.041855 12.03125 27.1875 C 11.664288 28.333147 11.291328 28.437452 11.1875 29.0625 C 11.083665 29.687548 11.251515 30.392483 11.5 30.59375 C 12.486961 31.426 14.184903 32 15.96875 32 C 17.752598 32 19.789255 31.279084 20.5 30.59375 C 20.751381 30.392634 20.916328 29.687548 20.8125 29.0625 C 20.708672 28.437452 20.335713 28.333147 19.96875 27.1875 C 19.601796 26.041855 19.07824 25.306192 19.125 21.625 C 19.17178 17.943809 21.88301 8.8731667 21.96875 5.71875 C 22.054482 2.5643336 21.3834 0.975457 21.375 0.875 C 21.377738 0.3964422 18.958758 0 15.96875 0 z "></path>
      </symbol>
      
			<symbol viewBox="0 0 32 32" id="icon-temp">
      	<path d="M 18.65625 0 C 16.873252 0 15.40625 1.467 15.40625 3.25 L 15.40625 23.15625 C 14.448746 24.038397 13.8125 25.282935 13.8125 26.6875 C 13.8125 29.353589 15.990161 31.53125 18.65625 31.53125 C 21.322339 31.53125 23.46875 29.353589 23.46875 26.6875 C 23.46875 25.282935 22.863754 24.038397 21.90625 23.15625 L 21.90625 3.25 C 21.90625 1.467 20.439248 0 18.65625 0 z M 18.65625 1.90625 C 19.415983 1.90625 20 2.4903 20 3.25 L 20 12.875 L 17.3125 12.875 L 17.3125 3.25 C 17.3125 2.4903 17.896517 1.90635 18.65625 1.90625 z M 14.53125 3.5625 L 8.96875 3.6875 L 9 5.59375 L 14.5625 5.46875 L 14.53125 3.5625 z M 14.625 7.78125 L 10.40625 7.90625 L 10.46875 9.8125 L 14.65625 9.6875 L 14.625 7.78125 z M 14.53125 12 L 8.96875 12.125 L 9 14.03125 L 14.5625 13.90625 L 14.53125 12 z M 14.625 16.1875 L 10.40625 16.3125 L 10.46875 18.21875 L 14.65625 18.09375 L 14.625 16.1875 z M 14.53125 20.40625 L 8.96875 20.53125 L 9 22.4375 L 14.5625 22.3125 L 14.53125 20.40625 z "></path>
      </symbol>
      
			<symbol viewBox="0 0 32 32" id="icon-globe">
      	<path d="M 15.886396,2.6682141e-4 C 7.9496559,0.04636682 1.0984059,5.9913528 0.11821594,14.077543 c -1.06326,8.771463 5.18308996,16.741289 13.95455006,17.80455 8.77146,1.063262 16.74583,-5.183088 17.80909,-13.954549 1.06326,-8.7714612 -5.18763,-16.7458342 -13.95909,-17.80909518 -0.68527,-0.08307 -1.36376,-0.122089 -2.03637,-0.11818199859 z M 15.904596,2.8320858 c 0.55355,-0.0032 1.11328,0.03164 1.67727,0.1 0.49091,0.05951 0.97499,0.144027 1.44545,0.254545 0.79669,0.942021 1.09091,2.122728 1.09091,2.122728 0.28353,0.515136 0.39803,1.120809 0.32728,1.704546 -0.0708,0.583737 -0.32888,1.140255 -0.72728,1.572728 -0.48752,0.529217 -1.1564,0.856416 -1.83182,1.104545 -0.67541,0.248131 -1.37663,0.4332912 -2.02272,0.7500002 -0.75447,0.369833 -1.43123,0.927527 -1.83637,1.663637 -0.20257,0.368056 -0.33369,0.776754 -0.36818,1.195455 -0.0345,0.418701 0.0259,0.847427 0.19545,1.231819 0.25927,0.587817 0.74505,1.042058 1.2091,1.486364 0.46404,0.444305 0.93379,0.917748 1.15,1.522727 0.23581,0.659832 0.14063,1.3858 0.15454,2.086365 0.007,0.350282 0.0406,0.702116 0.15909,1.031818 0.11851,0.3297 0.3289,0.636455 0.62273,0.827273 0.24739,0.160657 0.54626,0.232093 0.84091,0.218182 0.29465,-0.01391 0.58021,-0.109669 0.83182,-0.263637 0.50321,-0.307936 0.84872,-0.825113 1.06818,-1.372727 0.21946,-0.547613 0.32728,-1.134051 0.45909,-1.709092 0.13181,-0.575038 0.29411,-1.152876 0.60455,-1.654545 0.27675,-0.447233 0.66462,-0.81923 1.09091,-1.127274 0.42628,-0.308042 0.8905,-0.556641 1.35909,-0.795454 0.42773,-0.21799 0.86069,-0.430034 1.25454,-0.704546 0.39385,-0.274511 0.75392,-0.615958 0.97728,-1.040909 0.24387,-0.463984 0.31289,-0.998897 0.33181,-1.522728 0.0189,-0.523831 -0.0115,-1.05166 0.0455,-1.5727272 0.057,-0.521067 0.21139,-1.045332 0.55,-1.445455 0.0451,-0.05327 0.0943,-0.106649 0.14545,-0.154546 1.25981,1.7599372 2.08747,3.8320362 2.3591,6.0500022 l 0.0954,1.931818 c -0.0107,0.418221 -0.0395,0.839867 -0.0909,1.263637 -0.29624,2.44383 -1.25006,4.648602 -2.65455,6.463638 -0.14961,-0.248986 -0.32325,-0.484471 -0.52272,-0.695455 -0.28655,-0.303086 -0.62547,-0.564022 -1.01818,-0.704545 -0.39272,-0.140524 -0.84242,-0.149203 -1.21819,0.03182 -0.21023,0.101274 -0.39097,0.256043 -0.52727,0.445454 -0.1363,0.189411 -0.22711,0.41206 -0.27273,0.64091 -0.0912,0.457699 -4.3e-4,0.937601 0.2,1.359091 0.2376,0.499731 0.62977,0.919567 1.10455,1.204546 -2.65759,2.099894 -6.12188,3.180704 -9.75,2.740909 -0.68667,-0.08324 -1.3543,-0.218192 -2,-0.4 0.22382,-0.370363 0.35917,-0.795124 0.37727,-1.227273 0.03,-0.716208 -0.25636,-1.439024 -0.76818,-1.940909 -0.39843,-0.390687 -0.9142,-0.64293 -1.44546,-0.813637 -0.53126,-0.170705 -1.0827101,-0.264586 -1.6272701,-0.386364 -0.54456,-0.121776 -1.0929,-0.271966 -1.58182,-0.540909 -0.48892,-0.268941 -0.92241,-0.670326 -1.14546,-1.181818 -0.25916,-0.594318 -0.21075,-1.269551 -0.13636,-1.913637 0.0744,-0.644086 0.17092,-1.306388 0,-1.931819 -0.18994,-0.695017 -0.68684,-1.25839 -1.10454,-1.845455 -0.20886,-0.293532 -0.39989,-0.603933 -0.52728,-0.940909 -0.12739,-0.336978 -0.18867,-0.704927 -0.12272,-1.059092 0.0879,-0.472007 0.39435,-0.881719 0.77272,-1.177273 0.37837,-0.295553 0.82777,-0.489412 1.28182,-0.645454 0.45406,-0.156041 0.91964,-0.28093 1.36364,-0.463637 0.444,-0.182705 0.87088,-0.428454 1.19091,-0.786364 0.26168,-0.292659 0.44408,-0.648787 0.56363,-1.022727 0.11956,-0.373941 0.17646,-0.76418 0.21819,-1.1545462 0.0834,-0.78073 0.0975,-1.585696 0.3681801,-2.322727 0.29287,-0.797358 0.88876,-1.47798 1.64091,-1.872728 0.75215,-0.394748 1.96755,-0.821923 2.41818,-0.913637 0.26299,-0.05352 0.37646,-0.958906 0.89545,-1.663637 0.28524,-0.02042 0.57002,-0.03468 0.8591,-0.03636 z"></path>
      </symbol>

		  <symbol viewBox="100 100 512 512" id="icon-apple">
		    <path d="m 356.55306,215.6057 c -0.64697,-2.2161 -1.17237,-11.36071 -0.96861,-16.85858 0.89247,-24.08077 12.12543,-47.27026 33.00057,-68.12687 15.89544,-15.88135 34.47133,-26.31478 54.03964,-30.3522 6.3271,-1.305434 14.61895,-2.574649 14.91118,-2.282419 0.51114,0.511139 1.07814,12.528279 0.82678,17.522909 -1.00825,20.03408 -6.46739,36.76233 -17.21932,52.76461 -12.06513,17.95674 -29.30998,32.79901 -47.00342,40.45484 -10.774,4.66184 -23.94122,7.58796 -34.19428,7.59891 -2.67469,0.003 -3.21468,-0.11194 -3.39254,-0.7212 z"></path>
		    <path d="m 276.1756,587.0621 c -0.45545,-0.0897 -1.85288,-0.35989 -3.10539,-0.60046 -8.54708,-1.64155 -17.77907,-6.19873 -27.94853,-13.79614 -5.80826,-4.33923 -19.7903,-18.09454 -25.92781,-25.50737 -35.57215,-42.96368 -57.92993,-89.96656 -66.57742,-139.96603 -4.45375,-25.75141 -5.37816,-53.86489 -2.51167,-76.38555 4.41072,-34.65287 17.62933,-62.96219 39.73305,-85.09333 19.05832,-19.08195 41.86086,-30.29873 69.77568,-34.32331 16.43181,-2.36903 33.26334,-1.98941 46.99494,1.05993 7.20364,1.59969 12.66128,3.47937 26.41468,9.09755 19.68231,8.0401 23.67023,9.25071 30.51752,9.26411 7.73188,0.0152 13.94486,-1.53083 27.74151,-6.9029 26.92784,-10.48501 38.52314,-13.12435 60.0376,-13.6658 34.76375,-0.8749 62.95785,8.29919 87.15802,28.3604 5.64843,4.68239 19.08181,18.66969 19.03072,19.81542 -0.009,0.19362 -1.03,1.05622 -2.26963,1.91688 -8.08947,5.61639 -21.65009,18.11108 -28.02071,25.81815 -13.88016,16.79199 -21.4014,33.56693 -24.20181,53.9783 -1.0595,7.72237 -0.95342,21.13196 0.22928,28.98367 2.45665,16.30928 7.13059,28.77944 15.59668,41.61226 4.27096,6.4739 7.84972,10.80778 14.03175,16.9925 8.90866,8.91253 19.34169,16.63807 31.89604,23.6187 3.18821,1.77275 5.85077,3.25856 5.91677,3.30181 0.2264,0.14827 -4.07067,11.7572 -6.76955,18.28855 -3.43195,8.30547 -11.94425,25.50653 -16.34583,33.03048 -7.20274,12.31222 -16.8981,26.0998 -25.76768,36.64364 -25.23242,29.99544 -47.76034,44.71765 -68.42689,44.71765 -9.94534,0 -21.18479,-2.90929 -42.40503,-10.97648 -20.20036,-7.67943 -31.71221,-10.08359 -45.98205,-9.60283 -14.02579,0.47252 -26.59621,3.72912 -49.06521,12.7112 -12.36371,4.94246 -17.68466,6.47495 -25.86741,7.45 -3.35832,0.40023 -12.14564,0.50084 -13.88162,0.159 z"></path>
		  </symbol>
			
			<symbol viewBox="0 1020.3622 32 32" id="icon-close">
		    <path d="m 5.4537032,1020.3622 c -0.406844,0 -0.8148889,0.1584 -1.1266493,0.4702 l -3.85942983,3.8595 c -0.62349876,0.6235 -0.62349876,1.6252 0,2.2487 l 9.42280633,9.423 -9.42280633,9.4228 c -0.62349876,0.6236 -0.62349876,1.6252 0,2.2487 l 3.85942983,3.8595 c 0.6235057,0.6235 1.6251329,0.6235 2.2486326,0 l 9.4228065,-9.4229 9.422806,9.4229 c 0.623508,0.6235 1.625117,0.6235 2.248625,0 l 3.859453,-3.8595 c 0.623497,-0.6235 0.623497,-1.6251 0,-2.2487 l -9.422808,-9.4228 9.422808,-9.423 c 0.623497,-0.6235 0.623497,-1.6252 0,-2.2487 l -3.859453,-3.8595 c -0.623508,-0.6235 -1.625117,-0.6235 -2.248625,0 l -9.422806,9.4229 -9.4228065,-9.4229 c -0.3117463,-0.3118 -0.7151244,-0.4702 -1.1219833,-0.4702 z"></path>
		  </symbol>
		  
		  <symbol viewBox="0 800.7877 256 256" id="icon-leave">
        <path style="fill:#dcdcdc;fill-opacity:1;" d="m 89.971268,800.7877 c 0,0 -7.012914,26.00224 -19.523859,31.525 -12.510945,5.52276 -23.172003,-3.44687 -23.172003,-3.44687 0,0 9.448638,51.82862 -3.472027,63.82994 -12.920664,12.00132 -39.6515487,0.40255 -39.6515487,0.40255 0,0 2.7991015,8.97809 14.6428947,19.92641 11.843793,10.94833 36.7825,25.89803 39.651549,37.41235 2.869057,11.51432 -9.560653,14.03906 -9.560653,14.03906 9.149412,7.11621 33.870361,-12.83623 43.307865,-4.47432 9.437514,8.36191 -8.503788,24.34301 -4.587262,43.01888 0,0 3.176302,-10.23417 14.768696,-7.69887 11.59238,2.53528 23.98794,24.17887 35.27377,35.70147 11.28584,11.5227 24.6061,16.8821 24.6061,16.8821 0,0 -13.17561,-27.5938 2.71724,-43.7022 15.89285,-16.10844 58.44578,-3.472 58.44578,-3.472 0,0 -8.17039,-9.88425 -3.52235,-24.27908 4.54913,-14.08848 31.95271,-18.99551 31.95271,-18.99551 0,0 -22.83092,-4.80402 -28.4052,-12.45401 -5.5743,-7.64999 2.21405,-16.30343 2.21405,-16.30343 0,0 -26.5521,7.71269 -32.15399,-6.61697 -5.6019,-14.32967 38.84644,-52.40748 38.84644,-52.40748 0,0 -16.12369,0.42232 -18.6402,-10.60752 -2.51652,-11.02984 2.6895,-20.2392 6.00497,-30.6794 -10.40571,6.74899 -24.6758,11.3345 -37.02984,10.2148 -8.83957,-3.88095 -8.55427,-16.25311 -8.55427,-16.25311 0,0 -33.89645,39.75498 -48.38193,34.56931 -14.48549,-5.18567 -8.55427,-31.72627 -8.55427,-31.72627 0,0 -6.80994,7.59022 -14.61774,2.2392 C 94.768397,822.08072 89.971228,800.7877 89.971228,800.7877 l 4e-5,0 z"></path>
        <path d="m 88.552974,817.59253 c -0.830154,5.76614 -1.660116,11.53974 -2.490801,17.30981 -1.347316,11.2935 -2.285902,22.6798 -1.98761,34.09128 -4.896012,-4.13854 -9.788756,-8.28203 -14.693213,-12.42885 -5.000588,-5.24834 -10.00339,-10.5098 -15.020289,-15.77508 4.810236,5.44291 9.615078,10.89391 14.441618,16.35375 5.098674,4.64991 10.213772,9.30412 15.322203,13.96359 0.513039,15.57742 1.838093,31.14524 3.773942,46.62076 0.889427,7.1142 1.903081,14.21606 3.27075,21.28503 0.538931,2.78639 1.144517,5.5801 1.861811,8.35299 0.393633,1.52791 0.831894,3.0709 1.358619,4.60421 -0.219206,0.24154 -0.435289,0.48777 -0.65415,0.72963 l -11.774698,-9.46002 c -7.646928,-6.0333 -15.348346,-12.03848 -23.423599,-17.53625 -4.093071,-2.7854 -8.407014,-5.17421 -12.755924,-7.44724 -4.710877,-2.46304 -9.500293,-4.76811 -14.315819,-6.99437 -5.505318,-2.41764 -11.003446,-4.83019 -16.504705,-7.24597 5.417882,2.60313 10.814124,5.19821 16.227949,7.79948 4.73041,2.38615 9.439879,4.86377 14.039064,7.4724 4.253528,2.41318 8.443381,4.91052 12.35337,7.77432 7.824446,5.72555 15.268623,11.93668 22.69397,18.21556 3.781389,3.25687 7.566127,6.50551 11.346985,9.76193 -12.55273,14.00008 -24.542224,28.51682 -35.978246,43.47581 -5.082483,6.9953 -10.16206,13.9848 -15.246725,20.9831 0,0 0.162278,7.0386 3.421708,5.9629 1.854187,-0.612 8.211405,-8.0761 9.08262,-7.0196 0.870885,1.057 -4.981604,11.6489 -4.981604,11.6489 5.517153,-8.4218 11.033944,-16.858 16.555025,-25.2854 10.639207,-15.40401 21.864573,-30.41593 33.713881,-44.96022 3.533404,3.8534 7.058284,7.71944 10.592194,11.57342 6.50667,7.22657 12.97918,14.47261 18.94519,22.1153 2.98396,3.81907 5.60748,7.9253 8.15171,12.1018 2.75035,4.5159 5.36808,9.1335 7.90012,13.7875 2.76831,5.3303 5.53239,10.6671 8.30267,16.0015 -2.58561,-5.4235 -5.18672,-10.8508 -7.77432,-16.2783 -2.37488,-4.744 -4.81379,-9.4573 -7.42208,-14.0894 -2.40712,-4.2761 -4.9385,-8.52499 -7.8498,-12.52949 -5.74613,-7.90044 -11.97263,-15.4144 -18.24072,-22.87008 l -9.0323,-10.54188 c 0.75282,0.17846 1.51686,0.34881 2.26437,0.50319 2.80439,0.58207 5.61924,1.03084 8.42847,1.4341 7.12695,1.02348 14.26187,1.69559 21.41083,2.2392 15.551,1.18358 31.16273,1.75206 46.74656,1.50958 4.90576,4.88081 9.79747,9.74623 14.69321,14.61774 5.68732,4.55627 11.36344,9.12086 17.03306,13.66167 -5.50222,-4.75584 -10.99504,-9.49998 -16.47955,-14.24035 -4.37708,-4.695 -8.73974,-9.40241 -13.10816,-14.08938 11.40388,-0.25675 22.73375,-1.75651 33.94032,-3.64814 5.72303,-1.10935 11.43972,-2.21245 17.15885,-3.32107 -5.74593,0.97399 -11.49231,1.94525 -17.23433,2.91851 -11.34754,1.64077 -22.77033,2.88198 -34.19191,2.84304 1.01311,-1.22409 2.03068,-2.44863 3.04431,-3.6733 2.94786,-3.31728 6.12335,-6.44309 9.61097,-9.18326 4.2341,-3.32787 8.59174,-6.51666 12.9572,-9.68645 1.71269,-1.24358 3.41066,-2.49235 5.13256,-3.72362 0.50964,-0.36442 1.02414,-0.71878 1.53474,-1.08187 0.13266,-0.0943 0.2698,-0.20772 0.40255,-0.30191 -0.14162,0.093 -0.26103,0.18359 -0.40255,0.27675 -0.52335,0.3445 -1.06259,0.68567 -1.58506,1.03155 -1.76528,1.16862 -3.52653,2.34077 -5.28351,3.52234 -4.47761,3.01115 -8.94202,6.04858 -13.30944,9.23358 -3.6428,2.65882 -6.97732,5.72096 -10.089,8.98198 l -4.0507,4.57905 c -15.46638,-0.13138 -30.91295,-1.03101 -46.29369,-2.56628 -7.10408,-0.70961 -14.19869,-1.56545 -21.20955,-2.7424 -2.76326,-0.46404 -5.49836,-0.98145 -8.20203,-1.61021 -1.06339,-0.24835 -2.11498,-0.48959 -3.14496,-0.77995 2.38918,-2.88655 4.78201,-5.78254 7.22081,-8.62975 10.33547,-12.06777 21.03858,-23.86558 31.85207,-35.57569 11.14258,-12.06628 22.42942,-23.99942 33.78936,-35.87761 0.13526,-0.14142 0.26727,-0.2863 0.40255,-0.42771 l -0.47803,0.93091 c 2.7191,1.22183 5.47808,1.1958 7.92528,1.15734 4.28547,0.01 8.52891,-0.32181 12.73076,-0.65415 7.03325,-0.50124 14.07167,-1.00822 21.10892,-1.50958 -7.05301,-0.0494 -14.12739,-0.0765 -21.1844,-0.1258 -4.21631,0.002 -8.39727,-0.0163 -12.52948,-0.35223 -2.22607,-0.21592 -4.387,-0.29018 -6.01315,-1.0567 8.23939,-8.60226 16.51021,-17.18575 24.83254,-25.71313 3.63898,-3.71012 7.27961,-7.40977 10.91927,-11.12055 -3.81362,3.52978 -7.63348,7.06192 -11.44762,10.5922 -8.82422,8.20842 -17.59381,16.46319 -26.34212,24.75706 -0.57919,-1.5 -0.7651,-3.37029 -1.03154,-5.28352 -0.50814,-4.11294 -0.68153,-8.31719 -0.85543,-12.52949 -0.19649,-4.78431 -0.40995,-9.56205 -0.65415,-14.34098 -0.0835,-1.63449 -0.18893,-3.27199 -0.27675,-4.90612 -0.025,-0.46475 -0.05,-0.91907 -0.0754,-1.38378 -0.006,-0.12383 -0.0183,-0.25357 -0.0252,-0.37739 -0.003,0.12398 0.003,0.25341 0,0.37739 -0.0109,0.46526 -0.039,0.91854 -0.0503,1.38378 -0.04,1.63586 -0.0815,3.27052 -0.1258,4.90612 -0.12954,4.78229 -0.2756,9.56343 -0.45287,14.34098 -0.15698,4.21248 -0.31433,8.44777 -0.1258,12.73077 0.0593,2.28591 0.15959,4.8698 1.25798,7.37176 -11.70469,11.11629 -23.35042,22.31271 -34.87122,33.6384 -11.38606,11.19269 -22.68831,22.48891 -33.68872,34.1416 -2.18456,2.31488 -4.364267,4.64822 -6.516343,6.99437 -0.288326,-0.89634 -0.566933,-1.7942 -0.830268,-2.71724 -0.759055,-2.67002 -1.415347,-5.38903 -2.012769,-8.12655 -1.515325,-6.94558 -2.695717,-13.97209 -3.748782,-21.03344 -2.277255,-15.27757 -3.949415,-30.66143 -4.830645,-46.09241 l 4.377772,-4.30229 c 3.106395,-3.26607 6.024797,-6.74935 8.503949,-10.51672 2.969806,-4.51697 5.788886,-9.11898 8.579426,-13.73715 1.52442,-2.5527 3.02981,-5.12153 4.55389,-7.67368 l -4.83064,7.49757 c -2.95456,4.51405 -5.9389,9.01999 -9.057464,13.41007 -2.567939,3.61632 -5.534712,6.90836 -8.705226,10.01352 -1.17941,1.07662 -2.343499,2.16952 -3.522346,3.24559 -0.592446,-11.40636 0.06835,-22.87873 1.157342,-34.29255 0.693842,-5.78244 1.393859,-11.57375 2.088248,-17.36013 z"></path>
      </symbol>
      
      <symbol viewBox="0 224.15456 32 32" id="icon-anarchy">
      	<path d="m 10.326735,224.15456 c -0.4451005,-0.002 -1.1577,3.15082 -0.212419,3.65881 0.134044,0.072 0.166003,0.53048 0.177738,0.53755 0.07703,0.0463 0.0994,-0.30148 0.147394,-0.22543 0.99314,1.57376 -0.402444,0.13984 0.312125,0.83667 0.06863,0.1847 0.139447,0.36586 0.208083,0.55056 0.08903,0.15624 0.195699,0.30633 0.26444,0.47252 0.01117,0.027 0.02015,0.055 0.03035,0.0823 -0.714081,0.11898 -1.4112065,0.34241 -2.0114751,0.7543 -0.5149319,0.36997 -1.0856356,0.70706 -1.7253601,0.78899 -0.5749975,0.1237 -1.0604865,0.50395 -1.4089001,0.96672 -0.5264684,0.59241 -1.1315242,1.10908 -1.6906794,1.66901 -0.3646375,0.40615 -0.5683231,0.91951 -0.7369634,1.43057 -0.3114061,0.75029 -0.7378175,1.45439 -0.9580518,2.24124 -0.3188647,0.93621 -0.5669514,1.90164 -0.6676009,2.88715 -0.1083908,0.81971 -0.2426021,1.63587 -0.4335074,2.44065 -0.1076985,0.52946 -0.1214529,1.10602 0.1170463,1.60398 0.2753527,0.66857 0.7250621,1.25663 0.9970682,1.92477 -0.6148721,0.40163 -1.232979,0.79846 -1.88142284,1.14447 -0.12367173,0.0684 -0.24854427,0.13206 -0.3728174,0.19941 0.15280392,0.14879 0.38637,0.14679 0.55489034,0.26878 0.08063,0.02 0.1257207,0.15945 0.017343,0.17339 -0.28629794,0.15525 -0.65874571,0.0777 -0.91036593,0.3078 -0.09849263,0.0793 -0.12212126,0.26029 0.0130071,0.31646 0.16876414,0.0782 0.34859834,-0.0255 0.52454438,-0.013 0.68208165,-0.0503 1.39105465,-0.15573 1.97679455,-0.53321 0.2025947,-0.15654 0.3899805,-0.34746 0.606911,-0.48553 0.0016,0.001 0.0027,0.003 0.0043,0.004 0.2202603,0.2072 0.5465177,0.26146 0.7412981,0.50288 0.2359148,0.24125 0.3345103,0.57006 0.4291727,0.88435 0.1522984,0.49132 0.2996587,1.02372 0.7022817,1.37421 0.1495511,0.13994 0.3131454,0.26399 0.4768585,0.38583 -0.1201382,0.21328 -0.1373172,-0.12126 -0.2470987,0.16039 -0.061849,0.1587 0.025924,0.38487 -0.099711,0.52022 -0.8943778,0.9635 0.290301,5.00287 0.4074971,3.69348 0.015315,-0.17116 0.015545,-0.30392 0.082369,-0.46385 0.013667,-0.0327 0.042957,-0.0547 0.065026,-0.0823 0.025984,-0.0717 0.056045,-0.14365 0.078033,-0.21675 0.1769531,-0.58837 3.327e-4,-0.14389 0.2340946,-0.66761 0.3641789,-0.74847 -0.024026,0.0761 0.3468061,-0.86701 0.065655,-0.16698 0.1681008,-0.32278 0.2210884,-0.4942 0.073987,-0.23934 0.1039083,-0.48975 0.1647331,-0.73263 0.3379209,0.23294 0.6601144,0.48397 0.940711,0.78899 0.3113631,0.34064 0.5475576,0.79108 0.9970672,0.97105 0.5595278,0.20636 1.1628892,0.10143 1.7427007,0.0867 0.749325,-0.0548 1.510249,-0.0539 2.249905,0.091 0.68116,0.10385 1.376929,0.19554 2.063496,0.0867 1.255984,-0.13635 2.509368,-0.3038 3.754175,-0.52021 0.599743,-0.11254 1.185918,-0.28104 1.786051,-0.39015 0.359607,-0.053 0.727805,-0.0517 1.08377,-0.12572 0.366427,-0.10177 0.692802,-0.37331 0.810658,-0.74129 0.147384,-0.37684 0.218449,-0.80302 0.52021,-1.09678 0.01368,-0.0162 0.02935,-0.0317 0.04335,-0.0477 0.0223,0.0533 0.04524,0.10796 0.06936,0.1604 0.143337,0.31159 0.294712,0.61805 0.442178,0.9277 1.207625,1.80743 -0.483078,-0.83299 0.697947,1.47394 0.0556,0.10861 0.197801,0.15031 0.277446,0.24276 0.296861,0.3446 0.223837,0.44417 0.30779,0.94938 0.210377,1.26606 1.014679,-2.50226 0.368481,-3.61112 -0.05718,-0.0981 -0.286829,-0.50388 -0.351141,-0.56789 -0.07811,-0.0777 -0.19202,-0.10944 -0.28178,-0.17341 -0.473555,-0.33745 -0.386897,-0.29971 -0.637256,-0.80632 0.07376,-0.40032 0.07183,-0.8248 0.325131,-1.1618 0.376101,-0.52157 1.000329,-0.7566 1.499936,-1.13145 0.366205,-0.29376 0.612512,-0.7734 0.520209,-1.24851 -0.07413,-0.49065 -0.344889,-0.96165 -0.251434,-1.46959 0.07742,-0.53733 0.344747,-1.00993 0.56356,-1.49993 0.340015,0.0337 0.681946,0.0584 1.010072,-0.0607 1.139188,-0.31864 2.324432,-0.4774 3.507077,-0.46819 0.164283,0.0255 0.308651,0.1524 0.481193,0.12138 0.161249,-0.11776 0.156369,-0.34472 0.173402,-0.52454 0.01602,-0.34244 -0.06455,-0.69138 0.03468,-1.02742 0.06843,-0.37575 0.192775,-0.73848 0.307791,-1.10111 -0.004,-0.0142 0.02826,-0.0911 -0.0087,-0.0737 -0.283528,0.15155 -0.415206,0.46345 -0.650261,0.6676 -0.06623,0.0358 0.04914,-0.11226 0.05635,-0.16039 0.04226,-0.0744 -0.02852,-0.19297 -0.117048,-0.13872 -0.134981,0.10243 -0.16533,0.28863 -0.264439,0.4205 -0.141577,0.22939 -0.405212,0.41291 -0.684942,0.35981 -0.236741,-0.0334 -0.457574,-0.13755 -0.697947,-0.15173 -0.236832,-0.0513 -0.450758,-0.20156 -0.702283,-0.17774 -0.515176,0.007 -1.012077,0.17039 -1.517277,0.25144 -0.182266,0.0376 -0.363943,0.0748 -0.546218,0.11271 -5.56e-4,-0.0201 8.32e-4,-0.0407 0,-0.0606 -0.01381,-1.04883 -0.194591,-2.0852 -0.433509,-3.10392 -0.216004,-0.81116 -0.497715,-1.62793 -1.005737,-2.30626 -0.502156,-0.62089 -1.140704,-1.15187 -1.465256,-1.89876 -0.263092,-0.64136 -0.245833,-1.37994 -0.624251,-1.9768 -0.314515,-0.3878 -0.921967,-0.45189 -1.339538,-0.19941 -0.256812,0.10783 -0.583032,0.1867 -0.823664,0 -0.401027,-0.29141 -0.605414,-0.78503 -1.031749,-1.04908 -0.606816,-0.42652 -1.356904,-0.54738 -2.06783,-0.69361 -0.413884,-0.0802 -0.830067,-0.14147 -1.248502,-0.19075 0.0035,-1.50634 -0.387297,-4.25828 -0.476859,-3.11691 -0.0074,0.0947 -0.01425,0.19144 -0.02168,0.2861 -0.0284,0.126 -0.07166,0.25021 -0.09538,0.37716 -0.02872,0.15379 -0.02273,0.31452 -0.06936,0.46385 -0.02607,0.0835 -0.114315,0.13414 -0.143058,0.21676 -0.272261,0.78263 0.07634,0.4812 -0.398826,0.78031 -0.261621,0.59298 -0.275417,0.60561 -0.333801,0.85835 -0.381548,-0.0364 -0.75621,-0.12493 -1.122784,-0.2341 -0.141947,-0.0289 -0.288552,-0.0455 -0.433509,-0.0391 -0.397916,0.0583 -0.759692,0.26513 -1.140125,0.38582 -0.151591,-0.32414 -0.292592,-0.65385 -0.390156,-0.98406 -0.343081,-1.1612 -0.411858,-1.46941 -0.390157,-1.4696 -0.04529,-0.11922 -0.08149,-0.22328 -0.156063,-0.42484 -0.31253,-0.84472 -0.0494,-0.50729 -0.485528,-0.94504 -0.246324,-1.13735 -0.0317,-0.27083 -0.286115,-1.07944 -0.03891,-0.12368 -0.05407,-0.25318 -0.104042,-0.37281 -0.04101,-0.0982 -0.178535,-0.14611 -0.212419,-0.25144 -0.04695,-0.14594 -0.105482,-0.2078 -0.169068,-0.20808 z m 1.413235,3.28165 c 0.302036,0.79508 0.03602,-3.2e-4 0,0 z m 1.70802,3.10825 0.013,0.009 0.0043,0 c 0.270516,0.25128 0.280971,0.70432 0.624251,0.88869 0.133248,0.0698 0.273342,0.13047 0.411833,0.18641 -0.03362,0.17914 -0.07093,0.35754 -0.130053,0.52888 -0.09778,0.28336 -0.261855,0.53751 -0.394492,0.80633 -0.01454,0.0447 -0.02882,0.0896 -0.04335,0.13438 -0.05977,-0.1008 -0.121575,-0.20292 -0.173402,-0.30779 -0.358472,-0.72533 -0.529943,-1.22285 -0.793319,-1.93344 l 0.481193,-0.31213 z m -1.638659,1.02308 c 4.16e-4,0.001 -4.16e-4,0.003 0,0.004 0.489842,1.36424 0.04171,0.70832 0.784649,1.56496 0.56297,1.56695 0.219661,0.83548 0.676272,1.53896 -0.228843,0.38224 0.06409,-0.0866 -0.53755,1.39589 -0.143653,0.35398 -0.355863,0.68108 -0.485529,1.04042 -0.188795,0.5232 -0.249262,1.08832 -0.468188,1.59964 -0.298954,0.69826 -0.986602,1.18901 -1.218155,1.92912 -0.184436,0.55995 -0.347042,1.12597 -0.55489,1.67767 -0.145027,0.38494 -0.5974207,1.40691 -0.9363766,2.10251 -0.4446574,0.0683 -0.8866054,0.14337 -1.3091926,0.30346 -0.4261977,0.12192 -0.9082201,0.21132 -1.2094862,0.56789 -0.2808084,0.3264 -0.4419421,0.77431 -0.8410045,0.98406 -0.3390498,0.15723 -0.7281501,0.008 -1.001403,-0.21242 -0.079441,-0.0569 -0.1728031,-0.093 -0.2687742,-0.11704 -0.018062,-0.15695 -0.037813,-0.31387 -0.073697,-0.46819 -0.1821738,-0.47224 -0.4819615,-0.88955 -0.7022826,-1.34388 -0.1160313,-0.23628 -0.171972,-0.50622 -0.1170473,-0.7673 0.072778,-0.38204 0.2804737,-0.72916 0.303456,-1.12279 -0.002,-0.41192 0.083507,-0.81656 0.1864077,-1.21382 0.1391534,-0.5316 0.2840941,-1.07509 0.242764,-1.62999 -0.042538,-0.4685 0.1932159,-0.91108 0.4941993,-1.25284 0.1799671,-0.32901 0.1324231,-0.76245 0.4205023,-1.03608 0.2869623,-0.33844 0.665567,-0.64798 0.7543032,-1.10544 0.053078,-0.33311 -0.00679,-0.71749 0.2297589,-0.99273 0.2734306,-0.32048 0.7849719,-0.25206 1.0490877,-0.58524 0.2125949,-0.22127 0.4243315,-0.48295 0.7369634,-0.55923 1.1129696,-0.45128 2.0767285,-1.17867 3.0822385,-1.82073 0.250225,-0.16761 0.505343,-0.32543 0.762973,-0.48119 z m 6.875431,0.4205 c 0.04743,1.8e-4 0.0955,0.002 0.143057,0.004 0.313415,0.063 0.481394,0.36848 0.645927,0.61124 0.414162,0.5294 1.047782,0.7983 1.629988,1.09678 0.373906,0.18717 0.698369,0.45546 1.018743,0.71962 0.592551,0.45274 1.227808,0.8882 1.638658,1.52595 0.325472,0.45935 0.555195,1.01855 0.498534,1.59096 -0.0198,0.67652 -0.161763,1.36796 0.03035,2.03316 0.166878,0.73643 0.392026,1.47973 0.420502,2.2369 -0.655121,0.11995 -1.314656,0.22709 -1.976795,0.30345 -0.602151,0.0902 -1.186494,0.2786 -1.738365,0.53322 -0.575939,0.17795 -1.177297,0.0637 -1.768711,0.078 -0.163506,-0.19199 -0.325722,-0.38782 -0.463854,-0.59824 -0.289731,-0.44136 -0.460422,-0.95455 -0.762972,-1.38723 -0.221208,-0.31635 -0.573676,-0.52356 -0.79332,-0.841 -0.213206,-0.30813 -1.151633,-2.22325 -1.326532,-2.57503 -0.195255,-0.42863 -0.377645,-0.86474 -0.585236,-1.28752 -0.172065,-0.35043 -0.396869,-0.67477 -0.55489,-1.03175 -0.04753,-0.10738 -0.09014,-0.21899 -0.130051,-0.32946 -4.17e-4,-0.001 4.15e-4,-0.003 0,-0.004 0.01474,-0.0332 0.02886,-0.0664 0.04335,-0.0997 0.124919,-0.2871 0.212355,-0.58854 0.355476,-0.86701 0.09071,-0.1765 0.26022,-0.30927 0.342471,-0.48987 0.623996,-1.37006 -0.06328,-0.44631 0.541885,-1.1878 0.222769,0.0454 0.445673,0.0883 0.667601,0.13005 0.714335,0.0842 1.412647,-0.16754 2.124188,-0.16474 z m -4.668877,3.97093 c 0.174314,0.30524 0.380319,0.59318 0.511539,0.91904 1.014449,2.51921 -0.104468,0.75272 1.12712,2.47966 0.378966,0.69156 0.916891,1.71101 1.361213,2.36262 0.240464,0.35264 0.549915,0.6551 0.780314,1.01441 0.02985,0.0465 0.06275,0.0956 0.09104,0.14305 -0.241428,0.0594 -0.480315,0.13634 -0.710952,0.22976 -0.428334,0.13261 -0.895308,0.13079 -1.322199,-0.004 -0.300272,-0.0453 -0.608962,0.11448 -0.762972,0.37282 -0.179638,0.23264 -0.402777,0.49926 -0.723958,0.49853 -0.550544,0.0115 -0.980771,-0.45658 -1.534617,-0.42917 -0.421064,0.002 -0.816316,0.17665 -1.222492,0.26444 -0.421118,0.11191 -0.837263,0.23914 -1.257172,0.35548 0.107392,-0.26301 0.175248,-0.41908 0.481194,-1.15313 l 0.5809,-1.26585 c 0.195053,-0.36701 0.408467,-0.72495 0.585236,-1.10111 0.531627,-1.13127 0.435349,-1.23031 1.001402,-2.28024 0.140601,-0.2608 0.362209,-0.47677 0.476858,-0.74997 0.174536,-0.41589 0.254188,-0.8635 0.381487,-1.29619 0.04881,-0.12104 0.103222,-0.24058 0.156063,-0.35982 z m 10.178758,7.9462 c -0.133867,0.3398 -0.260551,0.68318 -0.320796,1.04475 -0.05934,0.36595 -0.0053,0.73385 -0.03468,1.10111 -0.02553,0.25967 -0.120351,0.5073 -0.25577,0.72829 -0.233754,0.46616 -0.499043,0.92468 -0.806324,1.34821 -0.02332,-0.034 -0.04788,-0.0673 -0.0737,-0.0997 -0.155469,-0.19472 -0.438865,-0.26919 -0.576564,-0.47686 -0.247422,-0.37314 -0.365973,-0.81893 -0.550555,-1.22682 -0.631424,-1.39532 -0.424123,-1.13781 -1.023078,-1.77305 0.04925,-0.0176 0.09875,-0.0361 0.147393,-0.0563 0.702584,-0.24555 1.405793,-0.57654 2.167538,-0.54622 0.438897,0.018 0.903316,0.10383 1.326533,-0.0434 z m -5.193421,0.91903 c 0.112085,0.16814 0.225434,0.33672 0.333801,0.50721 0.242038,0.38078 0.476569,0.76591 0.715288,1.14879 0.768943,0.81656 1.084017,1.89636 1.621318,2.85248 -0.271226,0.28122 -0.545222,0.56429 -0.875686,0.77597 -0.251722,0.20353 -0.31,0.53588 -0.437843,0.815 -0.118546,0.23489 -0.37256,0.38099 -0.63292,0.38149 -0.396297,0.0418 -0.793384,0.0904 -1.170471,0.22542 -0.859513,0.26152 -1.694391,0.6571 -2.601045,0.7283 -0.644827,0.0768 -1.322824,0.0175 -1.907433,-0.28178 -0.559445,-0.19157 -1.151727,-0.0443 -1.72536,-0.0347 -0.332013,0.0225 -0.667042,-0.0733 -0.997069,-0.0217 -0.390052,0.0884 -0.682941,0.41605 -1.079433,0.4812 -0.303543,0.009 -0.5467016,-0.24163 -0.6415908,-0.51155 -0.2006866,-0.41919 -0.317594,-0.91225 -0.697948,-1.21382 -0.309432,-0.24523 -0.7445308,-0.24329 -1.1011083,-0.11271 -0.104212,0.027 -0.2156008,0.0381 -0.3251315,0.0347 0.027613,-0.0763 0.054236,-0.15364 0.082369,-0.22975 0.1504383,-0.25278 0.3387991,-0.48666 0.4508483,-0.75864 0.1889032,-0.45854 0.2714456,-0.95359 0.4465125,-1.41757 0.1605603,-0.42554 0.3797196,-0.82628 0.5592251,-1.24417 0.1635633,-0.38078 0.299395,-0.77295 0.4638534,-1.15313 0.1647351,0.0178 0.3290427,0.0681 0.485528,0.12138 0.3111563,0.10021 0.6530593,0.2151 0.9753923,0.0954 0.365652,-0.1642 0.595906,-0.52897 0.966722,-0.68494 0.288941,-0.19391 0.674923,-0.34356 1.010072,-0.17774 0.421036,0.17514 0.776628,0.5352 1.252837,0.55489 0.520346,0.0317 0.977379,-0.2629 1.421906,-0.48987 0.444692,-0.24066 0.971645,-0.35032 1.46959,-0.23842 0.41461,0.0553 0.839365,0.0277 1.244167,-0.0737 0.22981,-0.0339 0.460507,-0.0567 0.693612,-0.078 z m -11.1021294,1.5823 c -0.2391665,0.49115 -0.5332618,1.11236 -0.6459254,1.35255 -0.6232528,1.70065 -0.065835,0.25486 -0.6502621,1.62999 -0.069641,0.16386 -0.1042859,0.34402 -0.1820729,0.50287 -0.2605135,-0.29504 -0.494655,-0.60964 -0.7629737,-0.89736 -0.333784,-0.39756 -0.6430902,-0.83278 -0.8540097,-1.3092 0.3548562,-0.0488 0.7136235,-0.0641 1.0707644,-0.0521 0.4004081,-0.0217 0.7756731,-0.24 1.0187428,-0.55489 0.2632897,-0.29073 0.5826889,-0.54002 0.9623865,-0.65459 0.014306,-0.006 0.029171,-0.0113 0.043347,-0.0174 z m -7.51268624,1.72103 c -0.002098,-0.001 -0.002897,9.7e-4 -0.008691,0.004 0.0102898,0.0161 0.015115,-0.001 0.008691,-0.004 z"></path>
      </symbol>
		  
		  <symbol viewBox="0 1020 32 32" id="icon-yoga">
      	<path d="m 21.651595,1052.3516 c -0.183927,-0.057 -0.273764,-0.1726 -0.375337,-0.4818 -0.04701,-0.1431 -0.06329,-0.1629 -0.165626,-0.201 -0.145207,-0.054 -0.585296,-0.1589 -0.718013,-0.1711 -0.337111,-0.031 -1.011583,-0.1666 -1.098504,-0.221 -0.172343,-0.072 -0.328471,-0.1541 -0.467988,-0.2807 -0.195219,-0.1906 -0.239995,-0.2134 -0.358315,-0.1823 -0.266569,0.053 -0.537755,0.078 -0.806926,0.1147 -0.331717,0.045 -2.349477,0.065 -2.833723,0.028 -0.432673,-0.091 -0.938679,0 -1.350578,-0.1805 -0.199722,0.221 -0.496443,0.3108 -0.71564,0.4573 -0.445582,0.1953 -0.934728,0.2278 -1.409629,0.3067 -0.449044,0.071 -0.499179,0.1007 -0.61459,0.3614 -0.192113,0.434 -0.293777,0.4991 -0.599864,0.3844 -0.2223915,-0.083 -0.6661215,-0.521 -0.7595635,-0.7492 -0.08471,-0.2068 -0.06742,-0.6297 0.04382,-1.0714 0.108559,-0.4312 0.159811,-0.756 0.134423,-0.8518 -0.01101,-0.042 -0.08303,-0.1144 -0.179198,-0.1812 -0.641371,-0.5207 -1.228205,-1.1082 -1.815737,-1.6882 -0.839803,-0.8401 -1.173122,-1.1364 -1.220344,-1.085 -0.06726,0.073 -0.120404,0.2663 -0.167854,0.6095 -0.0606,0.4383 -0.161076,0.6722 -0.324666,0.7556 -0.13634,0.07 -0.260675,0.069 -0.331388,0 -0.06637,-0.066 -0.06818,-0.126 -0.01056,-0.3489 0.134123,-0.519 0.156298,-0.6738 0.116665,-0.8141 -0.05079,-0.1798 -0.109197,-0.1882 -0.240908,-0.034 -0.177865,0.2077 -0.260459,0.3361 -0.39855,0.6197 -0.110581,0.2173 -0.223645,0.4331 -0.332425,0.6513 -0.212178,0.4276 -0.354792,0.6291 -0.551581,0.7793 -0.137536,0.105 -0.28078,0.1277 -0.341894,0.054 -0.06979,-0.2071 0.02905,-0.406 0.06455,-0.6067 0.0196,-0.1276 -0.03345,-0.1433 -0.08562,-0.025 -0.0515,0.1163 -0.452762,0.5149 -0.580464,0.5766 -0.200494,0.097 -0.459497,0.037 -0.458565,-0.1052 5.53e-4,-0.084 0.06027,-0.246 0.1791,-0.485 0.09634,-0.1952 0.186541,-0.393 0.294378,-0.5822 0.257743,-0.4409 0.254944,-0.5625 -0.01571,-0.6822 -0.06469,-0.029 -0.125683,-0.078 -0.135537,-0.1085 0.04028,-0.291 0.162307,-0.5813 0.267371,-0.8565 0.162351,-0.4848 0.209153,-0.9967 0.317244,-1.4933 0.019,-0.06 0.400366,-0.425 0.59813,-0.5727 0.406167,-0.3032 0.579542,-0.4604 0.810057,-0.7344 0.487998,-0.5538 0.989789,-1.1127 1.409625,-1.7224 0.347902,-0.42 0.687147,-0.8469 1.012984,-1.2842 0.07743,-0.1048 0.245338,-0.4235 0.272137,-0.5165 0.150592,-0.3902 0.261132,-0.8052 0.463664,-1.1726 0.228627,-0.4233 0.369949,-0.8849 0.557119,-1.3261 0.27904,-0.7821 0.470996,-1.5951 0.600389,-2.415 0.06134,-0.3889 0.09953,-0.7799 0.125811,-1.1726 0.06292,-0.8192 0.10992,-1.7183 0.5753685,-2.429 0.189782,-0.2565 0.483833,-0.5128 0.711809,-0.6205 0.560365,-0.2237 1.165526,-0.3043 1.741069,-0.488 0.382769,-0.1242 1.048251,-0.432 1.283114,-0.5936 0.271783,-0.1857 0.349636,-0.5013 0.459607,-0.7923 0.137692,-0.3641 0.197612,-0.6842 0.197612,-1.0555 0,-0.3461 -0.056,-0.5175 -0.249506,-0.7638 -0.183813,-0.2345 -0.296706,-0.5255 -0.377367,-0.8103 -0.05317,-0.2331 -0.207068,-0.435 -0.351892,-0.6205 -0.09599,-0.1125 -0.225614,-0.4238 -0.264293,-0.6347 -0.04505,-0.2457 -0.0067,-1.2219 0.05782,-1.4708 0.04482,-0.2873 0.0661,-0.5745 0.138159,-0.86 0.09211,-0.1801 0.108672,-0.3851 0.176383,-0.5728 0.103333,-0.2555 0.199645,-0.4964 0.368801,-0.7199 0.13065,-0.1534 0.276645,-0.2833 0.432098,-0.4135 0.170884,-0.1897 0.530219,-0.1471 0.706701,-0.2546 0.163905,-0.084 0.353717,-0.1082 0.532143,-0.1494 0.408333,-0.088 0.816847,0.023 1.21798,0.098 0.157259,0.029 0.336337,0.098 0.362679,0.1409 0.108992,0.012 0.201073,0.073 0.303675,0.106 0.132876,-0.011 0.512727,0.3524 0.723054,0.6917 0.147934,0.2387 0.342462,0.8015 0.424043,1.2268 0.02356,0.1229 0.05516,0.2862 0.07021,0.363 0.09013,0.4595 0.155446,1.5035 0.112001,1.7901 -0.04044,0.2668 -0.11161,0.4307 -0.318695,0.7342 -0.18889,0.2769 -0.282545,0.4739 -0.405135,0.8524 -0.08938,0.2759 -0.142153,0.3694 -0.34422,0.6095 -0.133607,0.1587 -0.191777,0.3721 -0.191927,0.7041 -0.03348,0.5104 0.231667,0.9458 0.366121,1.4139 0.06215,0.2336 0.234632,0.3919 0.657054,0.6027 0.699242,0.3491 1.113475,0.4874 2.079923,0.6945 0.317036,0.068 0.387019,0.091 0.613157,0.2019 0.585537,0.2871 1.019271,0.9766 1.170713,1.861 0.07673,0.4481 0.08912,0.5496 0.115872,0.9492 0.01935,1.0832 0.2519,2.1276 0.516144,3.1688 0.05752,0.2302 0.331612,1.0016 0.48444,1.3634 0.04758,0.1126 0.176288,0.3953 0.28602,0.6281 0.231012,0.4636 0.37364,0.9633 0.584424,1.4352 0.160052,0.3488 0.437633,0.6366 0.65579,0.9535 0.30713,0.372 0.555077,0.7363 0.879115,1.0902 0.348282,0.5036 0.767262,0.9977 1.197201,1.4427 0.23765,0.324 0.65751,0.4546 0.924858,0.735 0.08666,0.1057 0.116576,0.1366 0.234213,0.2423 0.119972,0.1557 0.163462,0.403 0.168575,0.5978 -0.01463,0.024 0.05415,0.2703 0.114826,0.4117 0.07398,0.1686 -0.0018,0.3718 0.06749,0.5365 0.04361,0 0.251031,0.4715 0.251031,0.5707 0.01372,0.1604 0.13256,0.2801 0.01206,0.4309 -0.133799,0.087 -0.297321,0.1227 -0.273702,0.3188 0.05875,0.186 0.14697,0.3774 0.251578,0.5444 0.09395,0.1387 0.400923,0.7944 0.400923,0.8563 -0.04997,0.153 -0.190196,0.1858 -0.334644,0.1726 -0.369628,-0.018 -0.516508,-0.5237 -0.794656,-0.6881 0.05008,0.2352 0.177485,0.5111 0.07073,0.7656 -0.04822,0.044 -0.06027,0.044 -0.158361,0 -0.275262,-0.1561 -0.455998,-0.4397 -0.613676,-0.7082 -0.02628,-0.056 -0.07114,-0.1355 -0.09969,-0.1763 -0.115081,-0.2906 -0.271971,-0.566 -0.419261,-0.8421 -0.120299,-0.1655 -0.237096,-0.4775 -0.461749,-0.5164 -0.02463,0 -0.06248,0.059 -0.08413,0.1205 -0.04539,0.1288 -0.01776,0.3984 0.07979,0.7785 0.08883,0.3461 0.03894,0.4838 -0.162539,0.4484 -0.154157,-0.027 -0.220951,-0.078 -0.316577,-0.2432 -0.05506,-0.1713 -0.130309,-0.374 -0.139215,-0.5569 0,-0.1837 -0.141422,-0.6362 -0.198842,-0.6362 -0.0654,0 -0.394062,0.2969 -0.96677,0.8733 -0.172116,0.2168 -0.436521,0.3539 -0.598273,0.5789 -0.055,0.095 -0.971072,0.9439 -1.273688,1.1805 -0.409087,0.3198 -0.37808,0.2774 -0.358339,0.4901 0.02666,0.2871 0.06341,0.4885 0.126756,0.6945 0.06854,0.223 0.118978,0.5723 0.114594,0.7936 -0.0055,0.2752 -0.07988,0.4211 -0.337645,0.6618 -0.351043,0.328 -0.566845,0.446 -0.725109,0.3967 z m 0.713551,-9.4849 c 0.930649,-0.1015 1.115151,-0.1398 1.146274,-0.2379 0.02134,-0.067 -0.146221,-0.3497 -0.295004,-0.4973 -0.508174,-0.4701 -1.066009,-0.8799 -1.402705,-1.4973 -0.189395,-0.3391 -0.273332,-0.7175 -0.385258,-1.0853 -0.184215,-0.6879 -0.313614,-1.3913 -0.4314,-2.0939 -0.124592,-0.5548 -0.141542,-1.2083 -0.532423,-1.6577 -0.130307,-0.1025 -0.174078,-0.038 -0.273749,0.4014 -0.151667,0.6212 -0.253706,1.2533 -0.354004,1.8845 -0.130323,0.7496 -0.239075,1.5025 -0.293588,2.2614 -0.04322,0.4625 -0.163705,0.9656 0.09744,1.3908 0.40191,0.5185 0.90297,0.988 1.529914,1.2091 0.400165,0.034 0.798034,-0.034 1.194503,-0.078 z m -9.904073,-1.3016 c 0.165346,-0.8121 -0.03205,-1.6274 -0.131591,-2.4349 -0.110091,-0.9225 -0.299951,-1.8321 -0.463993,-2.7457 -0.05491,-0.3137 -0.1536,-0.6414 -0.198394,-0.6586 -0.111442,-0.043 -0.266348,0.1404 -0.376359,0.4449 -0.207313,0.6143 -0.303177,1.2609 -0.415118,1.8985 -0.08692,0.6514 -0.267732,1.2825 -0.41656,1.9205 -0.03825,0.1717 -0.259009,0.6906 -0.370683,0.8713 -0.1070435,0.1732 -0.4611315,0.5411 -0.7751065,0.8053 -0.562551,0.4735 -0.781718,0.7295 -0.781718,0.9132 0,0.073 0.01061,0.08 0.160532,0.1091 0.680714,0.1392 1.3781865,0.2201 2.0729445,0.2338 0.728705,-0.2259 1.260918,-0.7617 1.696046,-1.3574 z"></path>
      </symbol>
      
		</defs>
	</svg>
</svg>
